<mxfile host="app.diagrams.net" modified="2023-03-29T12:54:27.901Z" agent="Mozilla/5.0 (Windows NT 10.0; Win64; x64) AppleWebKit/537.36 (KHTML, like Gecko) Chrome/111.0.0.0 Safari/537.36" etag="us5WN9F9T6CK0lL_K72J" version="21.1.1" type="github">
  <diagram name="PÃ¡gina-1" id="Ur6pA1SIh4JhjDC9ZHPa">
    <mxGraphModel dx="1114" dy="616" grid="1" gridSize="10" guides="1" tooltips="1" connect="1" arrows="1" fold="1" page="1" pageScale="1" pageWidth="827" pageHeight="1169" math="0" shadow="0">
      <root>
        <mxCell id="0" />
        <mxCell id="1" parent="0" />
        <mxCell id="q3bk94nf480ZKsj9-Ac9-6" style="edgeStyle=orthogonalEdgeStyle;rounded=0;orthogonalLoop=1;jettySize=auto;html=1;exitX=1;exitY=0.3333333333333333;exitDx=0;exitDy=0;exitPerimeter=0;entryX=0;entryY=0.5;entryDx=0;entryDy=0;" edge="1" parent="1" source="q3bk94nf480ZKsj9-Ac9-1" target="q3bk94nf480ZKsj9-Ac9-3">
          <mxGeometry relative="1" as="geometry" />
        </mxCell>
        <mxCell id="q3bk94nf480ZKsj9-Ac9-7" style="edgeStyle=orthogonalEdgeStyle;rounded=0;orthogonalLoop=1;jettySize=auto;html=1;exitX=1;exitY=0.3333333333333333;exitDx=0;exitDy=0;exitPerimeter=0;entryX=0;entryY=0.5;entryDx=0;entryDy=0;" edge="1" parent="1" source="q3bk94nf480ZKsj9-Ac9-1" target="q3bk94nf480ZKsj9-Ac9-2">
          <mxGeometry relative="1" as="geometry" />
        </mxCell>
        <mxCell id="q3bk94nf480ZKsj9-Ac9-8" style="edgeStyle=orthogonalEdgeStyle;rounded=0;orthogonalLoop=1;jettySize=auto;html=1;exitX=1;exitY=0.3333333333333333;exitDx=0;exitDy=0;exitPerimeter=0;entryX=0;entryY=0.5;entryDx=0;entryDy=0;" edge="1" parent="1" source="q3bk94nf480ZKsj9-Ac9-1" target="q3bk94nf480ZKsj9-Ac9-4">
          <mxGeometry relative="1" as="geometry" />
        </mxCell>
        <mxCell id="q3bk94nf480ZKsj9-Ac9-10" style="edgeStyle=orthogonalEdgeStyle;rounded=0;orthogonalLoop=1;jettySize=auto;html=1;exitX=1;exitY=0.3333333333333333;exitDx=0;exitDy=0;exitPerimeter=0;entryX=0;entryY=0.5;entryDx=0;entryDy=0;" edge="1" parent="1" source="q3bk94nf480ZKsj9-Ac9-1" target="q3bk94nf480ZKsj9-Ac9-9">
          <mxGeometry relative="1" as="geometry" />
        </mxCell>
        <mxCell id="q3bk94nf480ZKsj9-Ac9-1" value="Usuario" style="shape=umlActor;verticalLabelPosition=bottom;verticalAlign=top;outlineConnect=0;" vertex="1" parent="1">
          <mxGeometry x="10" y="220" width="30" height="60" as="geometry" />
        </mxCell>
        <mxCell id="q3bk94nf480ZKsj9-Ac9-19" style="edgeStyle=orthogonalEdgeStyle;rounded=0;orthogonalLoop=1;jettySize=auto;html=1;exitX=1;exitY=0.5;exitDx=0;exitDy=0;entryX=1.008;entryY=0.4;entryDx=0;entryDy=0;entryPerimeter=0;" edge="1" parent="1" source="q3bk94nf480ZKsj9-Ac9-2" target="q3bk94nf480ZKsj9-Ac9-9">
          <mxGeometry relative="1" as="geometry" />
        </mxCell>
        <mxCell id="q3bk94nf480ZKsj9-Ac9-29" value="" style="edgeStyle=orthogonalEdgeStyle;rounded=0;orthogonalLoop=1;jettySize=auto;html=1;" edge="1" parent="1" source="q3bk94nf480ZKsj9-Ac9-2" target="q3bk94nf480ZKsj9-Ac9-4">
          <mxGeometry relative="1" as="geometry" />
        </mxCell>
        <mxCell id="q3bk94nf480ZKsj9-Ac9-2" value="pesquisar" style="ellipse;whiteSpace=wrap;html=1;" vertex="1" parent="1">
          <mxGeometry x="140" y="230" width="120" height="80" as="geometry" />
        </mxCell>
        <mxCell id="q3bk94nf480ZKsj9-Ac9-18" style="edgeStyle=orthogonalEdgeStyle;rounded=0;orthogonalLoop=1;jettySize=auto;html=1;exitX=1;exitY=0.5;exitDx=0;exitDy=0;entryX=0.992;entryY=0.35;entryDx=0;entryDy=0;entryPerimeter=0;" edge="1" parent="1" source="q3bk94nf480ZKsj9-Ac9-3" target="q3bk94nf480ZKsj9-Ac9-9">
          <mxGeometry relative="1" as="geometry" />
        </mxCell>
        <mxCell id="q3bk94nf480ZKsj9-Ac9-28" value="" style="edgeStyle=orthogonalEdgeStyle;rounded=0;orthogonalLoop=1;jettySize=auto;html=1;" edge="1" parent="1" source="q3bk94nf480ZKsj9-Ac9-3" target="q3bk94nf480ZKsj9-Ac9-2">
          <mxGeometry relative="1" as="geometry" />
        </mxCell>
        <mxCell id="q3bk94nf480ZKsj9-Ac9-3" value="reservar" style="ellipse;whiteSpace=wrap;html=1;" vertex="1" parent="1">
          <mxGeometry x="140" y="140" width="120" height="80" as="geometry" />
        </mxCell>
        <mxCell id="q3bk94nf480ZKsj9-Ac9-20" style="edgeStyle=orthogonalEdgeStyle;rounded=0;orthogonalLoop=1;jettySize=auto;html=1;exitX=1;exitY=0.5;exitDx=0;exitDy=0;entryX=1.008;entryY=0.35;entryDx=0;entryDy=0;entryPerimeter=0;" edge="1" parent="1" source="q3bk94nf480ZKsj9-Ac9-4" target="q3bk94nf480ZKsj9-Ac9-9">
          <mxGeometry relative="1" as="geometry" />
        </mxCell>
        <mxCell id="q3bk94nf480ZKsj9-Ac9-4" value="emprestar livros" style="ellipse;whiteSpace=wrap;html=1;" vertex="1" parent="1">
          <mxGeometry x="140" y="330" width="120" height="80" as="geometry" />
        </mxCell>
        <mxCell id="q3bk94nf480ZKsj9-Ac9-27" value="" style="edgeStyle=orthogonalEdgeStyle;rounded=0;orthogonalLoop=1;jettySize=auto;html=1;" edge="1" parent="1" source="q3bk94nf480ZKsj9-Ac9-9" target="q3bk94nf480ZKsj9-Ac9-3">
          <mxGeometry relative="1" as="geometry" />
        </mxCell>
        <mxCell id="q3bk94nf480ZKsj9-Ac9-9" value="entrar no site" style="ellipse;whiteSpace=wrap;html=1;" vertex="1" parent="1">
          <mxGeometry x="140" y="40" width="120" height="80" as="geometry" />
        </mxCell>
        <mxCell id="q3bk94nf480ZKsj9-Ac9-39" style="edgeStyle=orthogonalEdgeStyle;rounded=0;orthogonalLoop=1;jettySize=auto;html=1;exitX=1;exitY=0.3333333333333333;exitDx=0;exitDy=0;exitPerimeter=0;entryX=0;entryY=0.5;entryDx=0;entryDy=0;" edge="1" parent="1" source="q3bk94nf480ZKsj9-Ac9-21" target="q3bk94nf480ZKsj9-Ac9-23">
          <mxGeometry relative="1" as="geometry" />
        </mxCell>
        <mxCell id="q3bk94nf480ZKsj9-Ac9-40" style="edgeStyle=orthogonalEdgeStyle;rounded=0;orthogonalLoop=1;jettySize=auto;html=1;exitX=1;exitY=0.3333333333333333;exitDx=0;exitDy=0;exitPerimeter=0;entryX=0;entryY=0.5;entryDx=0;entryDy=0;" edge="1" parent="1" source="q3bk94nf480ZKsj9-Ac9-21" target="q3bk94nf480ZKsj9-Ac9-22">
          <mxGeometry relative="1" as="geometry" />
        </mxCell>
        <mxCell id="q3bk94nf480ZKsj9-Ac9-41" style="edgeStyle=orthogonalEdgeStyle;rounded=0;orthogonalLoop=1;jettySize=auto;html=1;exitX=1;exitY=0.3333333333333333;exitDx=0;exitDy=0;exitPerimeter=0;entryX=0;entryY=0.5;entryDx=0;entryDy=0;" edge="1" parent="1" source="q3bk94nf480ZKsj9-Ac9-21" target="q3bk94nf480ZKsj9-Ac9-24">
          <mxGeometry relative="1" as="geometry" />
        </mxCell>
        <mxCell id="q3bk94nf480ZKsj9-Ac9-21" value="Cliente" style="shape=umlActor;verticalLabelPosition=bottom;verticalAlign=top;outlineConnect=0;" vertex="1" parent="1">
          <mxGeometry x="10" y="770" width="30" height="60" as="geometry" />
        </mxCell>
        <mxCell id="q3bk94nf480ZKsj9-Ac9-42" value="" style="edgeStyle=orthogonalEdgeStyle;rounded=0;orthogonalLoop=1;jettySize=auto;html=1;" edge="1" parent="1" source="q3bk94nf480ZKsj9-Ac9-22" target="q3bk94nf480ZKsj9-Ac9-23">
          <mxGeometry relative="1" as="geometry" />
        </mxCell>
        <mxCell id="q3bk94nf480ZKsj9-Ac9-22" value="entrar no site" style="ellipse;whiteSpace=wrap;html=1;" vertex="1" parent="1">
          <mxGeometry x="110" y="660" width="120" height="80" as="geometry" />
        </mxCell>
        <mxCell id="q3bk94nf480ZKsj9-Ac9-43" value="" style="edgeStyle=orthogonalEdgeStyle;rounded=0;orthogonalLoop=1;jettySize=auto;html=1;" edge="1" parent="1" source="q3bk94nf480ZKsj9-Ac9-23" target="q3bk94nf480ZKsj9-Ac9-24">
          <mxGeometry relative="1" as="geometry" />
        </mxCell>
        <mxCell id="q3bk94nf480ZKsj9-Ac9-23" value="fazer cadastro" style="ellipse;whiteSpace=wrap;html=1;" vertex="1" parent="1">
          <mxGeometry x="110" y="760" width="120" height="80" as="geometry" />
        </mxCell>
        <mxCell id="q3bk94nf480ZKsj9-Ac9-44" value="" style="edgeStyle=orthogonalEdgeStyle;rounded=0;orthogonalLoop=1;jettySize=auto;html=1;" edge="1" parent="1" source="q3bk94nf480ZKsj9-Ac9-24" target="q3bk94nf480ZKsj9-Ac9-25">
          <mxGeometry relative="1" as="geometry" />
        </mxCell>
        <mxCell id="q3bk94nf480ZKsj9-Ac9-24" value="olhar os produtos" style="ellipse;whiteSpace=wrap;html=1;" vertex="1" parent="1">
          <mxGeometry x="110" y="870" width="120" height="80" as="geometry" />
        </mxCell>
        <mxCell id="q3bk94nf480ZKsj9-Ac9-45" value="" style="edgeStyle=orthogonalEdgeStyle;rounded=0;orthogonalLoop=1;jettySize=auto;html=1;" edge="1" parent="1" source="q3bk94nf480ZKsj9-Ac9-25" target="q3bk94nf480ZKsj9-Ac9-32">
          <mxGeometry relative="1" as="geometry" />
        </mxCell>
        <mxCell id="q3bk94nf480ZKsj9-Ac9-25" value="selecionar produto" style="ellipse;whiteSpace=wrap;html=1;" vertex="1" parent="1">
          <mxGeometry x="280" y="870" width="120" height="80" as="geometry" />
        </mxCell>
        <mxCell id="q3bk94nf480ZKsj9-Ac9-26" value="finalizou compra" style="ellipse;whiteSpace=wrap;html=1;" vertex="1" parent="1">
          <mxGeometry x="460" y="770" width="120" height="80" as="geometry" />
        </mxCell>
        <mxCell id="q3bk94nf480ZKsj9-Ac9-48" value="" style="edgeStyle=orthogonalEdgeStyle;rounded=0;orthogonalLoop=1;jettySize=auto;html=1;" edge="1" parent="1" source="q3bk94nf480ZKsj9-Ac9-32" target="q3bk94nf480ZKsj9-Ac9-26">
          <mxGeometry relative="1" as="geometry" />
        </mxCell>
        <mxCell id="q3bk94nf480ZKsj9-Ac9-32" value="comprar produto" style="ellipse;whiteSpace=wrap;html=1;" vertex="1" parent="1">
          <mxGeometry x="280" y="760" width="120" height="80" as="geometry" />
        </mxCell>
        <mxCell id="q3bk94nf480ZKsj9-Ac9-54" style="edgeStyle=orthogonalEdgeStyle;rounded=0;orthogonalLoop=1;jettySize=auto;html=1;exitX=0;exitY=0.5;exitDx=0;exitDy=0;entryX=1;entryY=0.5;entryDx=0;entryDy=0;" edge="1" parent="1" source="q3bk94nf480ZKsj9-Ac9-33" target="q3bk94nf480ZKsj9-Ac9-23">
          <mxGeometry relative="1" as="geometry">
            <Array as="points">
              <mxPoint x="260" y="700" />
              <mxPoint x="260" y="800" />
            </Array>
          </mxGeometry>
        </mxCell>
        <mxCell id="q3bk94nf480ZKsj9-Ac9-33" value="fazer cadastro do&lt;br&gt;cliente" style="ellipse;whiteSpace=wrap;html=1;" vertex="1" parent="1">
          <mxGeometry x="460" y="660" width="120" height="80" as="geometry" />
        </mxCell>
        <mxCell id="q3bk94nf480ZKsj9-Ac9-46" style="edgeStyle=orthogonalEdgeStyle;rounded=0;orthogonalLoop=1;jettySize=auto;html=1;exitX=0;exitY=0.3333333333333333;exitDx=0;exitDy=0;exitPerimeter=0;entryX=1;entryY=0.5;entryDx=0;entryDy=0;" edge="1" parent="1" source="q3bk94nf480ZKsj9-Ac9-34" target="q3bk94nf480ZKsj9-Ac9-33">
          <mxGeometry relative="1" as="geometry" />
        </mxCell>
        <mxCell id="q3bk94nf480ZKsj9-Ac9-47" style="edgeStyle=orthogonalEdgeStyle;rounded=0;orthogonalLoop=1;jettySize=auto;html=1;exitX=0;exitY=0.3333333333333333;exitDx=0;exitDy=0;exitPerimeter=0;entryX=1;entryY=0.5;entryDx=0;entryDy=0;" edge="1" parent="1" source="q3bk94nf480ZKsj9-Ac9-34" target="q3bk94nf480ZKsj9-Ac9-26">
          <mxGeometry relative="1" as="geometry" />
        </mxCell>
        <mxCell id="q3bk94nf480ZKsj9-Ac9-49" value="" style="endArrow=classic;html=1;rounded=0;entryX=0.5;entryY=0;entryDx=0;entryDy=0;exitX=1;exitY=0.3333333333333333;exitDx=0;exitDy=0;exitPerimeter=0;" edge="1" parent="1" source="q3bk94nf480ZKsj9-Ac9-21" target="q3bk94nf480ZKsj9-Ac9-32">
          <mxGeometry width="50" height="50" relative="1" as="geometry">
            <mxPoint x="240" y="650" as="sourcePoint" />
            <mxPoint x="290" y="600" as="targetPoint" />
            <Array as="points">
              <mxPoint x="40" y="640" />
              <mxPoint x="340" y="640" />
            </Array>
          </mxGeometry>
        </mxCell>
        <mxCell id="q3bk94nf480ZKsj9-Ac9-50" value="" style="endArrow=classic;html=1;rounded=0;entryX=0.5;entryY=1;entryDx=0;entryDy=0;exitX=1;exitY=0.3333333333333333;exitDx=0;exitDy=0;exitPerimeter=0;" edge="1" parent="1" source="q3bk94nf480ZKsj9-Ac9-21" target="q3bk94nf480ZKsj9-Ac9-25">
          <mxGeometry width="50" height="50" relative="1" as="geometry">
            <mxPoint x="50" y="830" as="sourcePoint" />
            <mxPoint x="300" y="1030" as="targetPoint" />
            <Array as="points">
              <mxPoint x="70" y="960" />
              <mxPoint x="210" y="960" />
              <mxPoint x="280" y="960" />
              <mxPoint x="320" y="960" />
            </Array>
          </mxGeometry>
        </mxCell>
        <mxCell id="q3bk94nf480ZKsj9-Ac9-51" value="" style="swimlane;startSize=0;" vertex="1" parent="1">
          <mxGeometry y="600" width="830" height="440" as="geometry" />
        </mxCell>
        <mxCell id="q3bk94nf480ZKsj9-Ac9-34" value="FuncionÃ¡rio" style="shape=umlActor;verticalLabelPosition=bottom;verticalAlign=top;outlineConnect=0;" vertex="1" parent="q3bk94nf480ZKsj9-Ac9-51">
          <mxGeometry x="690" y="180" width="30" height="60" as="geometry" />
        </mxCell>
        <mxCell id="q3bk94nf480ZKsj9-Ac9-52" value="" style="swimlane;startSize=0;" vertex="1" parent="1">
          <mxGeometry width="830" height="440" as="geometry" />
        </mxCell>
        <mxCell id="q3bk94nf480ZKsj9-Ac9-60" style="edgeStyle=orthogonalEdgeStyle;rounded=0;orthogonalLoop=1;jettySize=auto;html=1;exitX=1;exitY=0.3333333333333333;exitDx=0;exitDy=0;exitPerimeter=0;" edge="1" parent="1" source="q3bk94nf480ZKsj9-Ac9-53" target="q3bk94nf480ZKsj9-Ac9-56">
          <mxGeometry relative="1" as="geometry" />
        </mxCell>
        <mxCell id="q3bk94nf480ZKsj9-Ac9-61" style="edgeStyle=orthogonalEdgeStyle;rounded=0;orthogonalLoop=1;jettySize=auto;html=1;exitX=1;exitY=0.3333333333333333;exitDx=0;exitDy=0;exitPerimeter=0;entryX=0;entryY=0.5;entryDx=0;entryDy=0;" edge="1" parent="1" source="q3bk94nf480ZKsj9-Ac9-53" target="q3bk94nf480ZKsj9-Ac9-57">
          <mxGeometry relative="1" as="geometry" />
        </mxCell>
        <mxCell id="q3bk94nf480ZKsj9-Ac9-53" value="aluno" style="shape=umlActor;verticalLabelPosition=bottom;verticalAlign=top;outlineConnect=0;" vertex="1" parent="1">
          <mxGeometry y="1330" width="30" height="60" as="geometry" />
        </mxCell>
        <mxCell id="q3bk94nf480ZKsj9-Ac9-66" value="" style="edgeStyle=orthogonalEdgeStyle;rounded=0;orthogonalLoop=1;jettySize=auto;html=1;" edge="1" parent="1" source="q3bk94nf480ZKsj9-Ac9-56" target="q3bk94nf480ZKsj9-Ac9-57">
          <mxGeometry relative="1" as="geometry" />
        </mxCell>
        <mxCell id="q3bk94nf480ZKsj9-Ac9-56" value="entrar no site" style="ellipse;whiteSpace=wrap;html=1;" vertex="1" parent="1">
          <mxGeometry x="150" y="1280" width="120" height="80" as="geometry" />
        </mxCell>
        <mxCell id="q3bk94nf480ZKsj9-Ac9-67" value="" style="edgeStyle=orthogonalEdgeStyle;rounded=0;orthogonalLoop=1;jettySize=auto;html=1;" edge="1" parent="1" source="q3bk94nf480ZKsj9-Ac9-57" target="q3bk94nf480ZKsj9-Ac9-65">
          <mxGeometry relative="1" as="geometry" />
        </mxCell>
        <mxCell id="q3bk94nf480ZKsj9-Ac9-68" style="edgeStyle=orthogonalEdgeStyle;rounded=0;orthogonalLoop=1;jettySize=auto;html=1;exitX=1;exitY=0.5;exitDx=0;exitDy=0;entryX=0;entryY=0.5;entryDx=0;entryDy=0;" edge="1" parent="1" source="q3bk94nf480ZKsj9-Ac9-57" target="q3bk94nf480ZKsj9-Ac9-64">
          <mxGeometry relative="1" as="geometry" />
        </mxCell>
        <mxCell id="q3bk94nf480ZKsj9-Ac9-57" value="fazer matricula" style="ellipse;whiteSpace=wrap;html=1;" vertex="1" parent="1">
          <mxGeometry x="150" y="1400" width="120" height="80" as="geometry" />
        </mxCell>
        <mxCell id="q3bk94nf480ZKsj9-Ac9-75" style="edgeStyle=orthogonalEdgeStyle;rounded=0;orthogonalLoop=1;jettySize=auto;html=1;exitX=0;exitY=0.3333333333333333;exitDx=0;exitDy=0;exitPerimeter=0;entryX=1.008;entryY=0.6;entryDx=0;entryDy=0;entryPerimeter=0;" edge="1" parent="1" source="q3bk94nf480ZKsj9-Ac9-62" target="q3bk94nf480ZKsj9-Ac9-73">
          <mxGeometry relative="1" as="geometry" />
        </mxCell>
        <mxCell id="q3bk94nf480ZKsj9-Ac9-62" value="ADM" style="shape=umlActor;verticalLabelPosition=bottom;verticalAlign=top;outlineConnect=0;" vertex="1" parent="1">
          <mxGeometry x="650" y="1460" width="30" height="60" as="geometry" />
        </mxCell>
        <mxCell id="q3bk94nf480ZKsj9-Ac9-74" style="edgeStyle=orthogonalEdgeStyle;rounded=0;orthogonalLoop=1;jettySize=auto;html=1;exitX=0;exitY=0.3333333333333333;exitDx=0;exitDy=0;exitPerimeter=0;entryX=1;entryY=0.5;entryDx=0;entryDy=0;" edge="1" parent="1" source="q3bk94nf480ZKsj9-Ac9-63" target="q3bk94nf480ZKsj9-Ac9-72">
          <mxGeometry relative="1" as="geometry" />
        </mxCell>
        <mxCell id="q3bk94nf480ZKsj9-Ac9-63" value="Professor" style="shape=umlActor;verticalLabelPosition=bottom;verticalAlign=top;outlineConnect=0;" vertex="1" parent="1">
          <mxGeometry x="650" y="1360" width="30" height="60" as="geometry" />
        </mxCell>
        <mxCell id="q3bk94nf480ZKsj9-Ac9-64" value="gerenciar matriculas" style="ellipse;whiteSpace=wrap;html=1;" vertex="1" parent="1">
          <mxGeometry x="300" y="1440" width="120" height="80" as="geometry" />
        </mxCell>
        <mxCell id="q3bk94nf480ZKsj9-Ac9-65" value="gerar relatorios&lt;br&gt;academicos" style="ellipse;whiteSpace=wrap;html=1;" vertex="1" parent="1">
          <mxGeometry x="300" y="1340" width="120" height="80" as="geometry" />
        </mxCell>
        <mxCell id="q3bk94nf480ZKsj9-Ac9-72" value="gerenciar relatorios&lt;br style=&quot;border-color: var(--border-color);&quot;&gt;academicos" style="ellipse;whiteSpace=wrap;html=1;" vertex="1" parent="1">
          <mxGeometry x="490" y="1300" width="120" height="80" as="geometry" />
        </mxCell>
        <mxCell id="q3bk94nf480ZKsj9-Ac9-73" value="gerenciar&lt;br&gt;matriculas" style="ellipse;whiteSpace=wrap;html=1;" vertex="1" parent="1">
          <mxGeometry x="490" y="1400" width="120" height="80" as="geometry" />
        </mxCell>
      </root>
    </mxGraphModel>
  </diagram>
</mxfile>
